<svg xmlns="http://www.w3.org/2000/svg" xmlns:xlink="http://www.w3.org/1999/xlink" width="500" zoomAndPan="magnify" viewBox="0 0 375 374.999991" height="500" preserveAspectRatio="xMidYMid meet" version="1.2"><defs><clipPath id="2c29c9945c"><path d="M 58 33 L 317.640625 33 L 317.640625 330 L 58 330 Z M 58 33 "/></clipPath></defs><g id="cbf20fb0e6"><rect x="0" width="375" y="0" height="374.999991" style="fill:#ffffff;fill-opacity:1;stroke:none;"/><rect x="0" width="375" y="0" height="374.999991" style="fill:#ffffff;fill-opacity:1;stroke:none;"/><g clip-rule="nonzero" clip-path="url(#2c29c9945c)"><path style=" stroke:none;fill-rule:nonzero;fill:#000000;fill-opacity:1;" d="M 58.382812 116.632812 L 91.679688 135.921875 L 91.679688 277.984375 L 58.355469 258.695312 Z M 96.097656 86.894531 L 129.460938 106.1875 L 98.699219 123.988281 L 65.296875 104.699219 Z M 142.324219 60.164062 L 175.730469 79.457031 L 143.230469 98.207031 L 109.867188 78.917969 Z M 265.578125 78.351562 L 233.464844 96.914062 L 203.171875 79.457031 L 235.351562 60.910156 Z M 311.167969 104.710938 L 279.085938 123.246094 L 247.261719 104.863281 L 279.320312 86.316406 Z M 232.792969 150.003906 L 200.984375 131.625 L 233.464844 112.800781 L 265.316406 131.210938 Z M 219.023438 157.957031 L 188.203125 175.746094 L 156.394531 157.347656 L 187.214844 139.53125 Z M 142.625 149.441406 L 112.332031 131.96875 L 143.230469 114.179688 L 173.527344 131.652344 Z M 105.449219 143.929688 L 135.410156 161.234375 L 135.410156 303.1875 L 105.476562 285.882812 Z M 149.179688 169.1875 L 181.320312 187.664062 L 181.320312 329.726562 L 149.179688 311.140625 Z M 195.089844 240.949219 L 318.027344 169.945312 L 318.027344 207.148438 L 195.089844 278.152344 Z M 318.027344 154.054688 L 195.089844 225.058594 L 195.089844 187.664062 L 234.484375 164.914062 C 236.039062 164.613281 237.332031 163.863281 238.367188 162.667969 L 280.722656 138.183594 C 282.273438 137.894531 283.5625 137.15625 284.59375 135.964844 L 318.054688 116.671875 Z M 219.695312 104.863281 L 187.214844 123.644531 L 156.917969 106.171875 L 189.417969 87.40625 Z M 195.089844 329.726562 L 195.089844 294.050781 L 318.027344 223.035156 L 318.027344 258.679688 Z M 188.203125 33.667969 L 221.582031 52.957031 L 189.472656 71.464844 L 156.09375 52.171875 Z M 188.203125 33.667969 "/></g></g></svg>